<svg width="96" height="13" viewBox="0 0 96 13" fill="none" xmlns="http://www.w3.org/2000/svg">
<path d="M3.42 12.7087V6.89474L3.312 4.68074H3.492L5.022 6.94874L9.468 12.7087H12.348V0.64874H9.648V6.46274L9.774 8.89274H9.576L7.92 6.35474L3.6 0.64874H0.72V12.7087H3.42ZM16.4805 2.77274V0.64874H13.7805V2.77274H16.4805ZM16.4805 12.7087V3.69074H13.7805V12.7087H16.4805ZM22.6998 12.8887C25.5978 12.8887 27.5778 11.3227 27.5778 9.00074V8.74874H24.8958V8.89274C24.8958 10.0447 24.0498 10.4587 22.6458 10.4587C21.0438 10.4587 20.3058 9.86474 20.3058 8.20874C20.3058 6.53474 21.0438 5.94074 22.6458 5.94074C24.0498 5.94074 24.8958 6.35474 24.8958 7.50674V7.65074H27.5778V7.39874C27.5778 5.05874 25.5978 3.51074 22.6998 3.51074C19.6038 3.51074 17.6238 5.32874 17.6238 8.20874C17.6238 11.0527 19.6038 12.8887 22.6998 12.8887ZM31.4395 12.7087V9.45074H33.5095L35.7595 12.7087H38.9455L35.7055 8.04674L38.9995 3.69074H35.7955L33.4915 7.03874H31.4395V0.64874H28.7395V12.7087H31.4395ZM47.3469 12.8887C51.2709 12.8887 52.7469 11.0347 52.7469 7.93874V0.64874H49.8849V7.93874C49.8849 9.63074 49.4709 10.2607 47.3469 10.2607C45.2049 10.2607 44.8449 9.59474 44.8449 7.81274V7.29074H41.9829V7.81274C41.9829 10.9987 43.4409 12.8887 47.3469 12.8887ZM58.9108 12.8887C61.9888 12.8887 64.0588 11.0527 64.0588 8.20874C64.0588 5.32874 61.9888 3.51074 58.9108 3.51074C55.8328 3.51074 53.7628 5.32874 53.7628 8.20874C53.7628 11.0527 55.8328 12.8887 58.9108 12.8887ZM58.9108 10.4947C57.0748 10.4947 56.4448 9.79274 56.4448 8.20874C56.4448 6.62474 57.0748 5.88674 58.9108 5.88674C60.7288 5.88674 61.3768 6.62474 61.3768 8.20874C61.3768 9.79274 60.7288 10.4947 58.9108 10.4947ZM67.8614 12.7087V8.15474C67.8614 6.62474 68.4734 5.94074 70.1834 5.94074C71.8394 5.94074 72.4334 6.55274 72.4334 7.99274V12.7087H75.1334V7.09274C75.1334 5.09474 73.9634 3.51074 71.4974 3.51074C69.1394 3.51074 68.0594 4.95074 67.8254 6.46274H67.6634V3.69074H65.1614V12.7087H67.8614ZM79.2713 12.8887C81.2693 12.8887 82.5293 12.0427 82.9433 10.6387H83.0873V12.7087H85.6073V7.41674C85.6073 5.05874 84.1853 3.51074 81.1793 3.51074C78.2093 3.51074 76.3373 5.05874 76.3373 7.29074V7.34474H79.0553V7.27274C79.0553 6.24674 79.6133 5.88674 80.9813 5.88674C82.4213 5.88674 82.9433 6.21074 82.9433 7.38074V7.72274L79.0733 8.11874C77.1473 8.31674 76.1573 9.14474 76.1573 10.4767C76.1573 11.9887 77.3273 12.8887 79.2713 12.8887ZM78.8753 10.2967C78.8753 9.86474 79.1633 9.68474 79.8113 9.63074L82.9433 9.27074C82.8713 10.5487 81.8813 10.9807 80.0453 10.9807C79.2533 10.9807 78.8753 10.7827 78.8753 10.2967ZM91.5299 12.8887C94.3199 12.8887 95.9939 11.7727 95.9939 10.0807C95.9939 8.58674 95.0939 7.77674 92.6819 7.50674L90.7559 7.27274C89.5679 7.12874 89.3159 6.93074 89.3159 6.46274C89.3159 5.88674 89.6579 5.65274 91.0079 5.65274C92.6639 5.65274 93.0239 6.03074 93.0239 6.76874V6.87674H95.7239V6.82274C95.7239 4.62674 94.0499 3.51074 91.0979 3.51074C88.0019 3.51074 86.6519 4.77074 86.6519 6.35474C86.6519 7.86674 87.6599 8.67674 89.4599 8.87474L91.9979 9.18074C93.0599 9.32474 93.3299 9.46874 93.3299 9.97274C93.3299 10.5127 92.9879 10.7467 91.5479 10.7467C90.0179 10.7467 89.5139 10.5307 89.5139 9.72074V9.55874H86.8139V9.61274C86.8139 11.7007 88.4879 12.8887 91.5299 12.8887Z" fill="black"/>
</svg>
