<svg width="150" height="13" viewBox="0 0 150 13" fill="none" xmlns="http://www.w3.org/2000/svg">
<path d="M7.07798 12.7087V2.39474H11.812V0.64874H0.399983V2.39474H5.15198V12.7087H7.07798ZM25.4772 12.7087V10.9627H17.7732V7.50674H25.2072V5.77874H17.7732V2.39474H25.4772V0.64874H15.8292V12.7087H25.4772ZM34.9293 12.8887C38.4933 12.8887 39.9873 11.1967 39.9873 9.36074C39.9873 7.59674 38.7993 6.49874 36.3873 6.06674L33.4533 5.56274C32.0313 5.25674 31.4193 4.91474 31.4193 3.87074C31.4193 2.79074 32.2833 2.25074 34.4793 2.25074C36.9813 2.25074 37.8633 2.98874 37.8633 4.46474V4.69874H39.7893V4.59074C39.7893 2.23274 38.1873 0.46874 34.6593 0.46874C30.9153 0.46874 29.4753 2.23274 29.4753 3.97874C29.4753 5.95874 30.9153 6.89474 32.9493 7.25474L35.9013 7.74074C37.4313 8.02874 38.0433 8.42474 38.0433 9.46874C38.0433 10.6027 37.2333 11.1067 34.9293 11.1067C32.2833 11.1067 31.4373 10.3867 31.4373 8.94674V8.65874H29.4933V8.76674C29.4933 11.3047 31.3293 12.8887 34.9293 12.8887ZM50.2414 12.7087V2.39474H54.9754V0.64874H43.5634V2.39474H48.3154V12.7087H50.2414ZM60.9367 12.7087V0.64874H58.9927V12.7087H60.9367ZM67.5608 12.7087V5.31074L67.4888 3.56474H67.6328L68.3708 5.31074L71.7008 11.9887H74.0408L77.3708 5.31074L78.1088 3.56474H78.2528L78.1808 5.31074V12.7087H80.1248V0.64874H77.4788L74.0408 7.63274L72.9788 10.1347H72.8348L71.7368 7.63274L68.2628 0.64874H65.6168V12.7087H67.5608ZM90.7313 12.8887C94.5473 12.8887 97.0313 10.4407 97.0313 6.67874C97.0313 2.91674 94.5473 0.46874 90.7313 0.46874C86.9513 0.46874 84.4493 2.91674 84.4493 6.67874C84.4493 10.4407 86.9513 12.8887 90.7313 12.8887ZM90.7313 11.0167C87.8693 11.0167 86.5013 9.68474 86.5013 6.67874C86.5013 3.67274 87.8693 2.32274 90.7313 2.32274C93.5933 2.32274 94.9793 3.67274 94.9793 6.67874C94.9793 9.68474 93.5933 11.0167 90.7313 11.0167ZM103.292 12.7087V5.63474L103.22 3.54674H103.364L104.876 5.67074L110.312 12.7087H112.4V0.64874H110.456V7.77674L110.546 9.95474H110.402L108.836 7.70474L103.436 0.64874H101.348V12.7087H103.292ZM119.021 12.7087V0.64874H117.077V12.7087H119.021ZM124.961 12.7087L126.347 9.57674H132.719L134.105 12.7087H136.301L130.919 0.64874H128.183L122.801 12.7087H124.961ZM128.759 4.15874L129.461 2.44874H129.605L130.307 4.15874L131.945 7.83074H127.121L128.759 4.15874ZM149.459 12.7087V10.9627H142.025V0.64874H140.081V12.7087H149.459Z" fill="black"/>
</svg>
